<svg version="1.1" id="sea" xmlns="http://www.w3.org/2000/svg" width="35" height="30" viewBox="0 0 32 32"><path d="M20.645 0C14.384 0 9.29 5.094 9.29 11.355c0 2.152.602 4.166 1.646 5.882l-1.13 1.13-1.183-1.183-.73.73 1.183 1.183-8.284 8.284A2.687 2.687 0 0 0 0 29.294 2.71 2.71 0 0 0 2.706 32c.723 0 1.402-.281 1.913-.792l8.284-8.284 1.183 1.183.73-.73-1.183-1.183 1.13-1.13a11.288 11.288 0 0 0 5.882 1.646C26.906 22.71 32 17.616 32 11.355S26.906 0 20.645 0zM3.889 30.478a1.674 1.674 0 0 1-2.366-2.366l8.284-8.284 2.367 2.367-8.284 8.284zm9.014-9.014-2.367-2.367.988-.988c.668.9 1.467 1.699 2.367 2.367l-.988.988zm7.742.213c-5.692 0-10.323-4.631-10.323-10.323S14.953 1.031 20.645 1.031s10.323 4.631 10.323 10.323-4.631 10.323-10.323 10.323z"/><path d="M20.645 2.581c-4.838 0-8.774 3.936-8.774 8.774s3.936 8.774 8.774 8.774 8.774-3.936 8.774-8.774-3.936-8.774-8.774-8.774zm0 16.516c-4.269 0-7.742-3.473-7.742-7.742s3.473-7.742 7.742-7.742 7.742 3.473 7.742 7.742-3.473 7.742-7.742 7.742z"/><path d="m25.8 13.72.938.43a6.726 6.726 0 0 0 .517-1.678l-1.018-.171a5.62 5.62 0 0 1-.437 1.419zM27.355 11.355c0-3.7-3.01-6.71-6.71-6.71v1.032a5.684 5.684 0 0 1 5.677 5.677h1.032z"/></svg>