<!-- Generated by IcoMoon.io -->
<svg version="1.1" id="sea" xmlns="http://www.w3.org/2000/svg" width="35" height="30" viewBox="0 0 32 32">
<title>search</title>
<path d="M20.645 0c-6.261 0-11.355 5.094-11.355 11.355 0 2.152 0.602 4.166 1.646 5.882l-1.13 1.13-1.183-1.183-0.73 0.73 1.183 1.183-8.284 8.284c-0.511 0.511-0.792 1.19-0.792 1.913 0 1.492 1.214 2.706 2.706 2.706 0.723 0 1.402-0.281 1.913-0.792l8.284-8.284 1.183 1.183 0.73-0.73-1.183-1.183 1.13-1.13c1.717 1.044 3.731 1.646 5.882 1.646 6.261 0 11.355-5.094 11.355-11.355s-5.094-11.355-11.355-11.355zM3.889 30.478c-0.316 0.316-0.737 0.49-1.183 0.49-0.923 0-1.673-0.75-1.673-1.673 0-0.447 0.174-0.868 0.49-1.183l8.284-8.284 2.367 2.367-8.284 8.284zM12.903 21.464l-2.367-2.367 0.988-0.988c0.668 0.9 1.467 1.699 2.367 2.367l-0.988 0.988zM20.645 21.677c-5.692 0-10.323-4.631-10.323-10.323s4.631-10.323 10.323-10.323 10.323 4.631 10.323 10.323-4.631 10.323-10.323 10.323z"></path>
<path d="M20.645 2.581c-4.838 0-8.774 3.936-8.774 8.774s3.936 8.774 8.774 8.774 8.774-3.936 8.774-8.774-3.936-8.774-8.774-8.774zM20.645 19.097c-4.269 0-7.742-3.473-7.742-7.742s3.473-7.742 7.742-7.742 7.742 3.473 7.742 7.742-3.473 7.742-7.742 7.742z"></path>
<path d="M25.8 13.72l0.938 0.43c0.245-0.535 0.419-1.099 0.517-1.678l-1.018-0.171c-0.082 0.489-0.229 0.967-0.437 1.419z"></path>
<path d="M27.355 11.355c0-3.7-3.010-6.71-6.71-6.71v1.032c3.13 0 5.677 2.547 5.677 5.677h1.032z"></path>
</svg>
